:FULLY-SPECIFIED
:FORCE-ALL-JOINTS-BE-3DOF
:DEGREES
204
root -0.118256 15.8126 -35.7704 7.63392 58.1146 7.88873
lfemur -8.865 0.575955 -15.5319
ltibia 46.354 -0 0
lfoot -24.4198 20.3547 -0.394081
ltoes -13.9318 0 0
rfemur -41.9979 -3.54545 12.0644
rtibia 52.1837 -0 0
rfoot -7.75313 5.51976 0.566062
rtoes -13.9806 0 0
lowerback 14.456 0.472259 -7.65392
upperback -1.3746 -0.506784 1.71185
thorax -9.33715 0.213306 6.52412
lowerneck -4.77587 -2.72044 -4.59379
upperneck 5.49129 -3.50162 3.13671
head 2.77746 -1.73379 1.70153
lclavicle -3.226e-15 -3.08884e-15 8.12177e-32
lhumerus -5.63621 -34.1351 92.0604
lradius 43.377 -0 0
lwrist -21.1212 0 0
lhand -26.6811 37.4958 0.0706114
lfingers 7.12502 -0 0
lthumb -0.112092 67.4705 0.0682554
rclavicle -3.226e-15 -3.08884e-15 8.12177e-32
rhumerus -9.6458 21.1961 -73.5327
rradius 90.2538 -0 0
rwrist -27.495 0 0
rhand 50.4476 -14.3076 3.81223
rfingers 7.12502 -0 0
rthumb 38.6914 -64.9974 -2.82193
205
root -0.102268 15.8069 -35.7676 7.72997 58.4401 8.0139
lfemur -8.81449 0.604339 -15.5753
ltibia 46.4027 -0 0
lfoot -24.457 20.4309 -0.391863
ltoes -13.8633 0 0
rfemur -42.1255 -3.56843 12.0533
rtibia 52.2482 -0 0
rfoot -7.66507 5.56705 0.562925
rtoes -13.9403 0 0
lowerback 14.4979 0.462698 -7.68638
upperback -1.36486 -0.528175 1.71405
thorax -9.34808 0.205115 6.54962
lowerneck -4.77624 -2.71319 -4.5813
upperneck 5.49563 -3.49157 3.11799
head 2.77752 -1.72913 1.6934
lclavicle -3.25846e-15 -3.05202e-15 8.05396e-32
lhumerus -5.50367 -34.2971 92.0405
lradius 43.4776 -0 0
lwrist -21.0674 0 0
lhand -26.6688 37.5383 0.0702207
lfingers 7.12502 -0 0
lthumb -0.100239 67.513 0.0678777
rclavicle -3.25846e-15 -3.05202e-15 8.05396e-32
rhumerus -9.50065 21.2771 -73.4647
rradius 90.5736 -0 0
rwrist -27.6723 0 0
rhand 50.8702 -14.2476 3.78845
rfingers 7.12502 -0 0
rthumb 38.9077 -65.1174 -2.82631
206
root -0.0863122 15.8012 -35.7647 7.82809 58.7648 8.14101
lfemur -8.7641 0.632697 -15.6186
ltibia 46.4514 -0 0
lfoot -24.4941 20.5068 -0.3896
ltoes -13.795 0 0
rfemur -42.2528 -3.59137 12.0422
rtibia 52.3125 -0 0
rfoot -7.57717 5.61424 0.559724
rtoes -13.9001 0 0
lowerback 14.5396 0.453182 -7.71877
upperback -1.35515 -0.549517 1.71624
thorax -9.35899 0.196947 6.57507
lowerneck -4.77661 -2.70596 -4.56884
upperneck 5.49996 -3.48155 3.09931
head 2.77757 -1.72448 1.68529
lclavicle -3.29095e-15 -3.01522e-15 7.98537e-32
lhumerus -5.37115 -34.4587 92.0201
lradius 43.5781 -0 0
lwrist -21.0136 0 0
lhand -26.6566 37.5808 0.0698221
lfingers 7.12502 -0 0
lthumb -0.0884074 67.5555 0.0674924
rclavicle -3.29095e-15 -3.01522e-15 7.98537e-32
rhumerus -9.35558 21.3577 -73.3965
rradius 90.8926 -0 0
rwrist -27.8493 0 0
rhand 51.2919 -14.1881 3.76422
rfingers 7.12502 -0 0
rthumb 39.1238 -65.2389 -2.83042
207
root -0.0703901 15.7955 -35.7619 7.92831 59.0887 8.27011
lfemur -8.71385 0.661027 -15.6617
ltibia 46.4999 -0 0
lfoot -24.5311 20.5826 -0.387293
ltoes -13.7269 0 0
rfemur -42.3798 -3.61427 12.0312
rtibia 52.3767 -0 0
rfoot -7.48942 5.66133 0.55646
rtoes -13.86 0 0
lowerback 14.5813 0.443711 -7.7511
upperback -1.34546 -0.570811 1.71842
thorax -9.36988 0.188803 6.60046
lowerneck -4.77698 -2.69875 -4.55641
upperneck 5.50428 -3.47156 3.08066
head 2.77763 -1.71985 1.6772
lclavicle -3.32347e-15 -2.97844e-15 7.916e-32
lhumerus -5.23865 -34.6199 91.9993
lradius 43.6784 -0 0
lwrist -20.9599 0 0
lhand -26.6443 37.6232 0.0694156
lfingers 7.12502 -0 0
lthumb -0.0765983 67.598 0.0670995
rclavicle -3.32347e-15 -2.97844e-15 7.916e-32
rhumerus -9.21059 21.438 -73.3283
rradius 91.2108 -0 0
rwrist -28.026 0 0
rhand 51.7128 -14.1291 3.73954
rfingers 7.12502 -0 0
rthumb 39.3398 -65.3618 -2.83425
208
root -0.0545023 15.7899 -35.759 8.03068 59.4117 8.40125
lfemur -8.66372 0.689327 -15.7047
ltibia 46.5483 -0 0
lfoot -24.5681 20.6583 -0.384943
ltoes -13.6589 0 0
rfemur -42.5065 -3.63714 12.0202
rtibia 52.4406 -0 0
rfoot -7.40182 5.7083 0.553134
rtoes -13.8199 0 0
lowerback 14.6229 0.434286 -7.78335
upperback -1.33579 -0.592054 1.7206
thorax -9.38074 0.180684 6.6258
lowerneck -4.77735 -2.69156 -4.54401
upperneck 5.50859 -3.4616 3.06206
head 2.77769 -1.71522 1.66912
lclavicle -3.35601e-15 -2.94167e-15 7.84587e-32
lhumerus -5.10616 -34.7807 91.9781
lradius 43.7785 -0 0
lwrist -20.9064 0 0
lhand -26.6321 37.6655 0.0690013
lfingers 7.12502 -0 0
lthumb -0.0648122 67.6403 0.0666991
rclavicle -3.35601e-15 -2.94167e-15 7.84587e-32
rhumerus -9.06569 21.5179 -73.2599
rradius 91.5283 -0 0
rwrist -28.2022 0 0
rhand 52.1327 -14.0705 3.71442
rfingers 7.12502 -0 0
rthumb 39.5555 -65.4862 -2.83779
